<?xml version="1.0" encoding="UTF-8"?>
<svg width="663px" height="586px" viewBox="0 0 663 586" version="1.1" xmlns="http://www.w3.org/2000/svg" xmlns:xlink="http://www.w3.org/1999/xlink">
    <!-- Generator: Sketch 52.2 (67145) - http://www.bohemiancoding.com/sketch -->
    <title>Group</title>
    <desc>Created with Sketch.</desc>
    <g id="Page-1" stroke="none" stroke-width="1" fill="none" fill-rule="evenodd">
        <g id="Main-Page" transform="translate(0.000000, -14.000000)">
            <g id="Group" transform="translate(-157.000000, 15.000000)">
                <path d="M165.5,110.15625 L165.5,100.96875" id="Line-3-Copy-8" stroke="#27282D" stroke-width="2"></path>
                <path d="M165.5,128.15625 L165.5,118.96875" id="Line-3-Copy-10" stroke="#27282D" stroke-width="2"></path>
                <polyline id="Path-6" stroke="#27282D" stroke-width="2" points="480 530 480 572.578125 556 572.578125 556 470.578125 634 470.578125 634 446"></polyline>
                <rect id="Rectangle" stroke="#27282D" stroke-width="2" x="571" y="511" width="44" height="44" rx="4"></rect>
                <rect id="Rectangle-Copy-32" stroke="#27282D" stroke-width="2" x="176" y="161" width="44" height="44" rx="4"></rect>
                <polyline id="Path-7" stroke="#27282D" stroke-width="2" points="592 531.578125 592 571.578125 619 571.578125 619 584.578125"></polyline>
                <polygon id="Path-2" stroke="#27282D" stroke-width="2" transform="translate(754.000000, 337.000000) rotate(-90.000000) translate(-754.000000, -337.000000) " points="824 382 684 292 684 382"></polygon>
                <path d="M757,434.5 L757,365.890625" id="Line-3" stroke="#27282D" stroke-width="2" transform="translate(757.500000, 400.000000) rotate(-90.000000) translate(-757.500000, -400.000000) "></path>
                <path d="M509,87.5 L509,18.890625" id="Line-3-Copy-11" stroke="#27282D" stroke-width="2" transform="translate(509.500000, 53.000000) rotate(-90.000000) translate(-509.500000, -53.000000) "></path>
                <path d="M744,296.5 L744,227.890625" id="Line-3-Copy" stroke="#27282D" stroke-width="2" transform="translate(744.500000, 262.000000) rotate(-90.000000) translate(-744.500000, -262.000000) "></path>
                <path d="M715,273.078125 L715,263.890625" id="Line-3-Copy-2" stroke="#27282D" stroke-width="2" transform="translate(715.000000, 268.500000) rotate(-90.000000) translate(-715.000000, -268.500000) "></path>
                <path d="M768.578125,418.078125 L768.578125,408.890625" id="Line-3-Copy-5" stroke="#27282D" stroke-width="2" transform="translate(768.578125, 413.500000) rotate(-90.000000) translate(-768.578125, -413.500000) "></path>
                <path d="M742,273.078125 L742,263.890625" id="Line-3-Copy-4" stroke="#27282D" stroke-width="2" transform="translate(742.000000, 268.500000) rotate(-90.000000) translate(-742.000000, -268.500000) "></path>
                <path d="M795.578125,418.078125 L795.578125,408.890625" id="Line-3-Copy-6" stroke="#27282D" stroke-width="2" transform="translate(795.578125, 413.500000) rotate(-90.000000) translate(-795.578125, -413.500000) "></path>
                <path d="M728,273.078125 L728,263.890625" id="Line-3-Copy-3" stroke="#27282D" stroke-width="2" transform="translate(728.000000, 268.500000) rotate(-90.000000) translate(-728.000000, -268.500000) "></path>
                <path d="M781.578125,418.078125 L781.578125,408.890625" id="Line-3-Copy-7" stroke="#27282D" stroke-width="2" transform="translate(781.578125, 413.500000) rotate(-90.000000) translate(-781.578125, -413.500000) "></path>
                <path d="" id="Line-2" stroke="#979797" stroke-linecap="square" fill-rule="nonzero" transform="translate(792.000000, 400.500000) rotate(-90.000000) translate(-792.000000, -400.500000) "></path>
                <circle id="Oval-Copy-8" stroke="#27282D" stroke-width="2" transform="translate(754.000000, 328.000000) rotate(-90.000000) translate(-754.000000, -328.000000) " cx="754" cy="328" r="38"></circle>
                <circle id="Oval-Copy-11" stroke="#27282D" stroke-width="2" transform="translate(683.000000, 45.000000) rotate(-90.000000) translate(-683.000000, -45.000000) " cx="683" cy="45" r="21"></circle>
                <polyline id="Path-3" stroke="#27282D" stroke-width="2" transform="translate(748.000000, 279.500000) rotate(-90.000000) translate(-748.000000, -279.500000) " points="737.5 285.5 748 273.5 758.5 273.5"></polyline>
                <path d="M777.5,421.5 L760.5,421.5" id="Path-5" stroke="#27282D" stroke-width="2" transform="translate(769.000000, 421.500000) rotate(-90.000000) translate(-769.000000, -421.500000) "></path>
                <rect id="Rectangle-Copy-25" stroke="#27282D" stroke-width="2" x="235" y="451" width="12" height="12" rx="6"></rect>
                <rect id="Rectangle-Copy-26" stroke="#27282D" stroke-width="2" x="235" y="468" width="12" height="12" rx="6"></rect>
                <rect id="Rectangle-Copy-29" stroke="#27282D" stroke-width="2" x="474" y="513" width="12" height="12" rx="6"></rect>
                <rect id="Rectangle-Copy-27" stroke="#27282D" stroke-width="2" x="235" y="502" width="5" height="5" rx="2.5"></rect>
                <rect id="Rectangle-Copy-33" stroke="#27282D" stroke-width="2" x="176" y="213" width="5" height="5" rx="2.5"></rect>
                <rect id="Rectangle-Copy-30" stroke="#27282D" stroke-width="2" x="649" y="35" width="5" height="5" rx="2.5"></rect>
                <rect id="Rectangle-Copy-28" stroke="#27282D" stroke-width="2" x="235" y="485" width="12" height="12" rx="6"></rect>
                <polyline id="Path-8" stroke="#27282D" stroke-width="2" points="157 438 262 438 262 476 343 476 343 384 633 384 633 430 820 430"></polyline>
                <polyline id="Path-8-Copy" stroke="#27282D" stroke-width="2" points="0 54 105 54 105 92 186 92 186 0 476 0 476 46 663 46"></polyline>
                <path d="M634,446.5 L820,446.5" id="Path-9" stroke="#27282D" stroke-width="2"></path>
                <path d="M149.042969,183.5 L199,183.5" id="Path-9-Copy" stroke="#27282D" stroke-width="2"></path>
            </g>
        </g>
    </g>
</svg>